<svg id="Layer_1" data-name="Layer 1" xmlns="http://www.w3.org/2000/svg" viewBox="0 0 565.03 75.74"><defs><style>.cls-1{fill:#cc2027;}.cls-2{fill:#fff;}</style></defs><title>Verizon2016</title><polygon class="cls-1" points="302.47 0 285.61 36.15 279.24 22.43 272.36 22.43 282.82 44.86 288.38 44.86 309.3 0 302.47 0"/><path class="cls-2" d="M230,67.12h13.62V42.24c0-5.67,3.32-9.69,8.2-9.69,4.71,0,7.16,3.32,7.16,8V67.12h13.62V38c0-9.86-5.94-16.85-15.54-16.85-6.11,0-10.39,2.62-13.62,7.42h-.26V22.43H230ZM203.28,21.21c-14.23,0-23.74,10.21-23.74,23.65s9.51,23.65,23.74,23.65S227,58.22,227,44.86,217.51,21.21,203.28,21.21Zm-.09,37.27c-6.46,0-9.86-5.41-9.86-13.62s3.4-13.62,9.86-13.62,10,5.32,10,13.62S209.65,58.48,203.19,58.48Zm-62.41,8.64H179V56.38H157.37v-.26l20.69-23.22V22.43H140.79V33.17h20.95v.26L140.79,56.82Zm-17.46,0H137V22.43h-13.7Zm-31.77,0h13.62V46.61c0-9.34,5.59-13.44,14.14-12.31h.26V22.52a7.75,7.75,0,0,0-2.79-.35c-5.32,0-8.9,2.44-12,7.68h-.26V22.43h-13Zm-25-8.55c-6,0-9.69-3.93-10.39-10H88.33c.09-9.6-2.44-17.28-7.77-22.08-3.75-3.49-8.73-5.41-15-5.41-13.44,0-22.78,10.21-22.78,23.57s8.9,23.74,23.65,23.74a23.37,23.37,0,0,0,13.7-4,17.69,17.69,0,0,0,7.51-10.56H74.54C73.23,56.82,70.52,58.57,66.51,58.57Zm-.7-27.67c4.8,0,8.12,3.58,8.64,8.82H56.21C57.26,34.39,60.14,30.9,65.81,30.9ZM15.54,67.12H29.85L45.39,22.43H31.68L23,51.15h-.17L14.05,22.43H0ZM123.33,6.55H137V18.68h-13.7Z"/><path class="cls-2" d="M411.22,54.5c4.5-5,10.92-8.87,15.83-12.42,3.14-2.25,5-4.44,5-7.85,0-4.09-2.46-6.82-6.69-6.82-2.52,0-4.37.68-5.66,2.25-1.57,1.71-2.25,4.16-2.25,7.1H406.85c0-4.84,1-8.46,3.28-11.6,2.8-4.09,8.05-6.76,15.56-6.76,11.33,0,17.61,6.82,17.61,15.49,0,5.6-2.52,9.28-6.07,12.28-5,4.57-12.42,7.64-16.24,12.35v.21h22.25V68H406.1A19.05,19.05,0,0,1,411.22,54.5Z"/><path class="cls-2" d="M448.41,43.78c0-15.49,8.6-25.38,21.15-25.38,12.83,0,21.15,9.83,21.15,25.38s-8.39,25.38-21.22,25.38C457,69.17,448.41,59.27,448.41,43.78Zm30.84,0c0-10-2.8-16.72-9.69-16.72s-9.69,6.76-9.69,16.72,2.87,16.58,9.69,16.58S479.25,53.75,479.25,43.78Z"/><path class="cls-2" d="M506.28,36.28H495V28.84c7.1-.21,12.42-3.21,13.58-9.89h8.8V68H506.28Z"/><path class="cls-2" d="M530.78,62.48C527,58,525.25,51.7,525.25,44s1.64-14.6,5.66-19.31c3.48-4.09,8.26-6.28,15.15-6.28,10.1,0,16.1,5.46,17.54,12.56H553c-.68-2.25-2.59-4.57-6.69-4.57-6.48,0-10,4.91-10.51,14.47h.14a13.7,13.7,0,0,1,11.87-6.07A17,17,0,0,1,565,51.9c0,10.24-8.05,17.26-18.9,17.26C539.31,69.17,534.19,66.64,530.78,62.48ZM554.46,52a8.59,8.59,0,0,0-8.73-8.94c-5.46,0-9.14,3.69-9.14,8.87s4,8.87,9.14,8.87A8.6,8.6,0,0,0,554.46,52Z"/><path class="cls-2" d="M343,12.62h6.82V75.74H343Z"/></svg>