<?xml version="1.0" encoding="utf-8"?>
<!-- Generator: Adobe Illustrator 16.0.0, SVG Export Plug-In . SVG Version: 6.00 Build 0)  -->
<!DOCTYPE svg PUBLIC "-//W3C//DTD SVG 1.1//EN" "http://www.w3.org/Graphics/SVG/1.1/DTD/svg11.dtd">
<svg version="1.1" id="Layer_1" xmlns="http://www.w3.org/2000/svg" xmlns:xlink="http://www.w3.org/1999/xlink" x="0px" y="0px"
	 width="570px" height="236px" viewBox="23.5 272.5 570 236" enable-background="new 23.5 272.5 570 236" xml:space="preserve">
<g>
	<path fill="#327264" d="M231.239,300.058l1.379-5.264c0.125-0.752,0.25-1.128,0.376-1.379c0.125-0.25,0.376-0.25,0.501-0.25
		c0.376,0,0.877,0.501,1.378,1.504c0.376,0.752,0.752,1.128,1.003,1.378c0.25,0.251,0.626,0.376,1.128,0.376h0.376l1.504,0.125
		l8.272,0.125h9.776h2.883l5.389-0.125c0.251,0,0.501,0,0.877,0.125c1.629,0.125,2.632,0.25,3.008,0.25s0.627-0.125,0.877-0.376
		c0.125-0.125,0.501-0.877,1.128-2.256c0.251-0.626,0.627-1.002,1.128-1.002c0.125,0,0.376,0,0.752,0.125
		c0.125,0.501,0.125,0.877,0.125,1.253v1.378v3.008c0,0.752,0,3.008-0.125,7.019c0,0.25,0,0.501-0.125,0.752
		c-0.251,0.125-0.501,0.25-0.627,0.25c-0.125,0-0.376-0.125-0.501-0.25c-0.125-0.125-0.376-0.752-0.501-1.629
		c-0.501-2.13-1.003-3.635-1.755-4.512c-0.501-0.627-1.128-1.003-2.005-1.253c-0.877-0.25-3.008-0.376-6.267-0.376
		c-2.632,0-4.637,0-5.891,0c0,0.877-0.125,1.754-0.125,2.506l0.25,21.808c0,0.877,0,2.507-0.125,4.888v4.637v2.632
		c0,0.877,0.125,1.379,0.376,1.755c0.251,0.376,1.003,0.752,2.256,1.002c2.13,0.501,3.634,0.877,4.261,1.003
		c0.501,0,0.752,0.125,1.128,0.25v1.002l-5.013-0.125c-2.757,0-4.763-0.125-6.142-0.125l-5.139,0.25l-3.76,0.251
		c-1.003,0-1.755,0-1.88-0.125l-0.501-0.25c0-0.501,0.125-0.877,0.376-1.003c0.125-0.125,0.626-0.25,1.253-0.376
		c1.002-0.125,2.13-0.376,3.509-0.752c1.378-0.376,2.256-0.752,2.632-1.128c0.251-0.25,0.376-0.501,0.501-1.002
		c0.25-1.003,0.376-3.008,0.376-6.016v-6.016l-0.125-13.16l-0.125-2.757v-9.4c-1.504,0-3.384,0-5.64,0
		c-3.384,0-5.389,0.251-6.141,0.627c-1.128,0.626-2.883,2.506-5.139,5.64c-0.752,1.128-1.379,1.754-2.005,1.754l-0.376-0.125
		c-0.125-0.125-0.125-0.25-0.125-0.376c0-0.25,0.125-1.128,0.501-2.506C230.863,301.938,231.114,300.685,231.239,300.058z"/>
	<path fill="#327264" d="M282.25,340.29v-0.752c0.752-0.501,1.754-0.752,2.757-0.877c1.629-0.25,2.757-0.376,3.133-0.626
		c0.376-0.251,0.752-0.501,1.002-0.877c0.376-0.752,0.501-1.504,0.501-2.381l-0.125-2.632v-2.507l-0.125-2.882
		c0-1.253,0-2.632,0.125-4.512c0.125-1.755,0.125-2.757,0.125-2.883v-9.65c0-1.504,0-3.133,0.125-4.888
		c0.125-1.754,0.125-3.008,0.125-3.635c0-2.005,0-3.133-0.125-3.509c-0.125-0.376-0.251-0.501-0.501-0.752
		c-0.25-0.25-1.128-0.25-2.507-0.376c-1.128-0.125-1.88-0.125-2.256-0.25c-0.125-0.251-0.125-0.501-0.125-0.627
		c0-0.125,0-0.376,0-0.626c0.501,0,1.003-0.125,1.253-0.125h3.259c2.381,0,4.763-0.125,7.395-0.25
		c1.253-0.125,3.259-0.125,5.891-0.25c0,0.25,0.125,0.376,0.125,0.626s0,0.376-0.125,0.501c-0.125,0.125-0.25,0.25-0.501,0.25
		c-3.008,0.25-4.888,0.627-5.389,1.128c-0.501,0.501-0.877,1.755-0.877,3.885c0,3.76,0,7.646,0.125,11.781l0.125,3.259
		c0.125,0.125,1.629,0.251,4.512,0.376c0.752,0,1.253,0.125,1.379,0.125l5.139-0.125l3.384,0.125l8.898-0.25
		c1.128,0,1.755-0.125,2.006-0.125c0.125-4.011,0.25-8.021,0.25-11.781c0-3.635-0.125-5.766-0.25-6.518
		c-0.126-0.376-0.251-0.626-0.502-0.752c-0.125-0.125-1.378-0.25-3.634-0.501c-0.377,0-0.753-0.125-1.129-0.125
		c-0.125-0.376-0.125-0.752-0.125-1.253c0.752-0.125,1.254-0.125,1.504-0.125l2.256,0.125c2.131,0.125,4.262,0.125,6.393,0.125
		c1.379,0,3.635-0.125,6.893-0.376c0,0.501-0.125,0.877-0.125,1.253c-0.877,0.376-2.005,0.627-3.133,0.627
		c-0.752,0-1.504,0.125-2.006,0.376c-0.501,0.376-0.627,1.002-0.627,2.005c0,0.25,0,0.501,0,0.752c0,0.877,0,1.378,0,1.629v4.011
		v2.506l-0.125,3.259v6.141l-0.125,5.766c0,1.128,0,2.882,0.125,5.389v4.763c0,1.629,0.125,2.757,0.376,3.384
		c0.125,0.376,0.376,0.501,0.752,0.752l2.883,0.627c1.379,0.376,2.256,0.626,2.507,0.877c0.25,0.25,0.376,0.501,0.376,0.752
		l-0.126,0.376h-0.125c-0.125,0-0.251,0-0.501-0.125c-2.507-0.501-5.265-0.752-8.021-0.752c-2.256,0-3.76,0-4.638,0.125
		c-0.877,0.125-2.883,0.376-5.765,0.752c0-0.251-0.126-0.501-0.126-0.627c0-0.125,0-0.376,0.126-0.626
		c0.752-0.376,1.88-0.752,3.384-0.877c1.128-0.125,2.131-0.501,2.757-1.128c0.502-0.376,0.627-1.003,0.627-1.88v-5.014
		c0.125-1.504,0.125-2.381,0.125-2.506c0-2.005,0-4.888-0.125-8.648c-0.125-0.376-0.251-0.501-0.376-0.627
		c-0.627-0.25-3.76-0.125-9.4,0.125c-1.128,0.125-2.005,0.125-2.506,0.125c-0.502,0-1.755,0-3.51-0.125
		c-1.754,0-3.509-0.125-5.013-0.125c-0.877,0-1.504,0-2.131,0c-1.128,0-1.629,0-1.754,0c-0.501,0-0.877,0.125-1.128,0.376
		c-0.251,0.251-0.251,0.627-0.251,1.128v2.506c0,0.376,0,2.632-0.125,6.643c0,0.877,0,1.504,0,2.005c0,3.259,0.125,5.39,0.376,6.392
		c0.125,0.501,0.376,0.877,0.626,1.003c0.251,0.125,1.128,0.376,2.757,0.752c1.128,0.25,1.88,0.501,2.507,0.626l0.25,0.376
		c0,0.125,0,0.25-0.125,0.25c-0.125,0.125-0.376,0.125-0.626,0.125c-0.125,0-0.376,0-0.626,0c-0.251,0-0.752,0-1.504,0
		c-1.253,0-2.632-0.125-4.512-0.25c-1.128-0.125-2.131-0.125-3.008-0.125c-1.504,0-3.886,0.125-7.144,0.25
		C283.127,340.29,282.625,340.29,282.25,340.29z"/>
	<path fill="#327264" d="M343.913,339.162c0.251-0.25,0.376-0.376,0.627-0.376c0.376-0.125,1.128-0.25,2.005-0.25
		c2.256-0.125,3.635-0.376,4.262-0.627c0.376-0.501,0.501-1.128,0.501-2.005v-2.506v-8.899l-0.125-4.261v-8.773l-0.126-10.026
		c0-2.381-0.125-3.76-0.501-4.011c-0.376-0.501-1.629-0.752-3.76-0.752c-0.878,0-1.63-0.125-2.382-0.251
		c-0.25-0.125-0.501-0.376-0.501-0.626c0-0.125,0-0.376,0.125-0.626c0.251-0.125,0.376-0.125,0.502-0.125c0.376,0,0.752,0,1.253,0
		c1.379,0.125,2.758,0.25,4.262,0.25l2.632-0.125l6.142,0.125c3.133,0,5.515,0,7.269-0.125c1.755-0.125,2.883-0.125,3.51-0.125
		c0.501,0,1.88,0,4.011,0.125h5.013l0.627,0.125l2.883-0.125l0.376,0.125c0.125,0.251,0.251,0.376,0.251,0.627
		c0,0.376,0,0.877-0.126,1.504c-0.125,0.626-0.125,1.128-0.125,1.253c0,2.381,0.125,4.512,0.251,6.141
		c0,0.125-0.126,0.251-0.251,0.251c-0.251,0-0.501,0-0.627-0.125c-0.25-0.501-0.626-1.253-1.002-2.381s-1.129-2.381-2.006-3.885
		c-0.627-1.003-1.003-1.629-1.379-1.755c-0.376-0.125-1.002-0.25-2.005-0.25c-0.251,0-1.254,0-3.259-0.125c-0.501,0-1.003,0-1.504,0
		l-10.026,0.251h-0.878c-1.253,0-2.005,0.125-2.381,0.501c-0.376,0.501-0.627,2.256-0.627,5.014c0,0.25,0,3.133,0.125,8.397v4.888
		c0.251,0.125,0.502,0.125,0.878,0.125h0.627c0.376,0,1.002,0,1.754,0c1.254,0,2.006,0.125,2.507,0.125c0.251,0,0.501,0,0.752,0
		c2.507-0.125,5.766-0.125,9.776-0.125c1.253-0.251,2.005-0.501,2.131-0.752c0.376-0.376,0.626-1.504,0.752-3.258
		c0.125-1.755,0.626-2.757,1.128-3.008c0.25,0,0.626,0,0.877,0.125c0,0.25,0.125,0.376,0.125,0.501c0,0.125,0,0.376-0.125,0.752
		c-0.125,0.877-0.125,3.635-0.125,8.146c0,1.253,0.125,2.632,0.25,4.136c0.126,1.504,0.251,2.256,0.251,2.381
		c0,0.25,0,0.501-0.125,0.877c-0.126,0.125-0.376,0.125-0.502,0.125h-0.25c-0.376-0.626-0.752-1.629-1.128-3.008
		c-0.627-2.381-1.254-3.885-1.88-4.387c-0.627-0.627-1.755-0.877-3.259-0.877c-0.376,0-0.878,0-1.755,0c-0.878,0-2.131,0-3.886,0
		h-2.256c-3.259,0-5.389,0.125-6.392,0.25v1.128v6.517v4.136v4.011c0,2.381,0.125,3.76,0.501,4.136
		c0.376,0.501,1.254,0.752,2.632,0.752h2.131c0.126,0,0.878,0,2.256,0c1.254,0,2.883,0,4.763,0c4.512,0,7.521-0.25,9.024-0.627
		c1.504-0.376,2.757-1.128,3.76-2.005c1.003-1.003,2.256-3.133,3.635-6.392c0.501-1.003,0.877-1.504,1.379-1.504
		c0.25,0,0.501,0.125,0.752,0.25c-0.627,2.256-1.128,3.885-1.128,4.512c-0.251,1.629-0.376,3.258-0.502,5.013
		c0,0.752-0.25,1.378-0.501,1.88h-0.752l-9.901,0.125h-4.387l-10.528,0.125h-4.261c-0.502,0-1.003,0-1.504,0
		c-4.262,0.125-7.27,0.251-9.274,0.251c-0.376,0-0.627,0-0.753-0.125c-0.125-0.125-0.25-0.25-0.25-0.501L343.913,339.162z"/>
	<path fill="#327264" d="M46.875,415.489v-0.752c0.752-0.501,1.754-0.752,2.757-0.877c1.629-0.251,2.757-0.376,3.133-0.627
		s0.752-0.501,1.002-0.878c0.376-0.752,0.501-1.504,0.501-2.381l-0.125-2.632v-2.507l-0.125-2.883c0-1.253,0-2.632,0.125-4.512
		c0.125-1.755,0.125-2.757,0.125-2.883v-9.65c0-1.504,0-3.133,0.125-4.888c0.125-1.754,0.125-3.008,0.125-3.635
		c0-2.005,0-3.133-0.125-3.509c-0.125-0.376-0.251-0.501-0.501-0.752c-0.25-0.25-1.128-0.25-2.507-0.376
		c-1.128-0.125-1.88-0.125-2.256-0.25c-0.125-0.251-0.125-0.501-0.125-0.627c0-0.125,0-0.376,0-0.626
		c0.501,0,1.003-0.125,1.253-0.125h3.259c2.381,0,4.763-0.125,7.395-0.25c1.253-0.125,3.259-0.125,5.891-0.251
		c0,0.251,0.125,0.376,0.125,0.627s0,0.376-0.125,0.501c-0.125,0.125-0.25,0.25-0.501,0.25c-3.008,0.25-4.888,0.626-5.39,1.128
		c-0.501,0.501-0.877,1.755-0.877,3.885c0,3.76,0,7.646,0.125,11.781l0.125,3.259c0.125,0.125,1.629,0.25,4.512,0.376
		c0.752,0,1.253,0.125,1.379,0.125l5.139-0.125l3.384,0.125l8.899-0.251c1.128,0,1.754-0.125,2.005-0.125
		c0.125-4.011,0.251-8.021,0.251-11.781c0-3.635-0.125-5.766-0.251-6.518c-0.125-0.376-0.25-0.626-0.501-0.752
		c-0.125-0.125-1.379-0.25-3.635-0.501c-0.376,0-0.752-0.125-1.128-0.125c-0.125-0.376-0.125-0.752-0.125-1.253
		c0.752-0.125,1.253-0.125,1.504-0.125l2.256,0.125c2.13,0.125,4.261,0.125,6.392,0.125c1.379,0,3.635-0.125,6.894-0.376
		c0,0.501-0.125,0.877-0.125,1.253c-0.877,0.376-2.005,0.627-3.259,0.627c-0.752,0-1.504,0.125-2.005,0.376
		c-0.501,0.376-0.627,1.002-0.627,2.005c0,0.25,0,0.501,0,0.752c0,0.877,0,1.378,0,1.629v4.01v2.507l-0.125,3.259v6.141
		l-0.125,5.765c0,1.128,0,2.883,0.125,5.39v4.763c0,1.629,0.125,2.757,0.376,3.384c0.125,0.376,0.376,0.501,0.752,0.752l2.882,0.627
		c1.379,0.376,2.256,0.627,2.507,0.877c0.25,0.251,0.376,0.502,0.376,0.752l-0.125,0.376H97.76c-0.125,0-0.251,0-0.501-0.125
		c-2.507-0.501-5.264-0.752-8.021-0.752c-2.256,0-3.76,0-4.637,0.125c-0.877,0.126-2.883,0.376-5.765,0.752
		c0-0.25-0.125-0.501-0.125-0.626c0-0.126,0-0.376,0.125-0.627c0.752-0.376,1.88-0.752,3.384-0.877
		c1.128-0.126,2.131-0.502,2.757-1.129c0.501-0.376,0.627-1.002,0.627-1.88v-5.013c0.125-1.504,0.125-2.382,0.125-2.507
		c0-2.006,0-4.888-0.125-8.648c-0.125-0.376-0.251-0.501-0.376-0.627c-0.626-0.25-3.76-0.125-9.4,0.125
		c-1.128,0.125-2.005,0.125-2.506,0.125c-0.501,0-1.755,0-3.509-0.125c-1.755-0.125-3.509-0.125-5.014-0.125
		c-0.877,0-1.504,0-2.13,0c-1.128,0-1.629,0-1.755,0c-0.501,0-0.877,0.125-1.128,0.376c-0.25,0.251-0.25,0.627-0.25,1.128v2.507
		c0,0.376,0,2.632-0.125,6.643c0,0.877,0,1.504,0,2.005c0,3.259,0.125,5.39,0.376,6.392c0.125,0.502,0.376,0.878,0.626,1.003
		c0.251,0.126,1.128,0.376,2.757,0.752c1.128,0.251,1.88,0.502,2.507,0.627l0.25,0.376c0,0.125,0,0.251-0.125,0.251
		c-0.125,0.125-0.376,0.125-0.627,0.125c-0.125,0-0.376,0-0.626,0s-0.752,0-1.504,0c-1.253,0-2.632-0.125-4.512-0.251
		c-1.128-0.125-2.13-0.125-3.008-0.125c-1.504,0-3.885,0.125-7.144,0.251C47.877,415.489,47.376,415.489,46.875,415.489z"/>
	<path fill="#327264" d="M127.338,369.868c0.125,0.376,0.125,0.752,0.125,0.877c0,0.125,0,0.376-0.125,0.626
		c-0.626,0.125-1.128,0.25-1.504,0.25c-0.125,0-0.501,0-0.877,0c-0.376,0-0.752,0-0.877,0c-1.128,0-1.88,0.251-2.507,0.627
		c-0.376,0.25-0.626,0.626-0.752,1.002l-0.376,4.011l0.125,17.421c0,6.392,0.25,10.277,0.626,11.907
		c0.376,1.504,1.128,2.883,2.005,3.885c0.877,1.003,2.381,1.88,4.261,2.507s3.76,1.003,5.515,1.003c4.011,0,7.019-0.627,9.149-1.755
		c2.13-1.128,3.635-2.757,4.512-4.763c0.877-2.005,1.379-5.139,1.379-9.274c0-0.125,0-1.003-0.125-2.757v-1.002
		c0-0.376,0-1.128,0.125-2.256c0-1.128,0.125-1.754,0.125-1.88l-0.501-10.027c-0.125-3.384-0.376-5.389-0.627-6.016
		c-0.25-0.627-0.501-1.128-1.002-1.379c-0.877-0.626-2.632-1.253-5.139-1.754c-0.125-0.376-0.125-0.627-0.25-1.003
		c0.877-0.125,1.754-0.125,2.757-0.125c0.877,0,1.88,0,3.008,0.125c1.504,0.125,2.381,0.125,2.507,0.125l5.515-0.125h1.128v1.253
		c-2.883,0.376-4.637,0.752-5.139,1.379c-0.501,0.626-0.877,1.378-0.877,2.757c0,0.752,0,2.256,0.125,4.763l0.25,7.27v2.883
		l0.125,3.634c0,4.637-0.125,7.771-0.376,9.4c-0.376,2.382-0.877,4.137-1.629,5.515c-0.752,1.379-1.755,2.632-3.008,3.635
		c-1.253,1.128-3.008,2.006-5.264,2.632c-2.131,0.752-4.387,1.003-6.518,1.003c-3.384,0-5.765-0.251-7.269-0.752
		c-2.632-0.877-4.888-1.88-6.392-3.259c-1.629-1.253-2.632-2.632-3.259-3.885c-0.877-1.755-1.253-4.262-1.253-7.646v-2.382
		l-0.125-9.901l0.125-7.896v-5.39c0-1.378-0.125-2.256-0.501-2.882c-0.25-0.376-0.626-0.501-1.128-0.501h-2.131
		c-1.504,0-2.506-0.125-3.008-0.501c-0.125-0.25-0.125-0.376-0.125-0.501c0-0.251,0.125-0.376,0.251-0.501
		c0.25-0.125,0.626-0.251,1.002-0.251h0.877h2.381h5.515L127.338,369.868z"/>
	<path fill="#327264" d="M166.442,415.489v-0.877c0.501-0.251,1.379-0.502,2.507-0.627s2.005-0.376,2.506-0.627
		c0.501-0.251,0.877-0.501,1.128-0.752c0.251-1.003,0.376-2.883,0.376-5.64v-27.323l0.125-4.512c0-0.877-0.125-1.629-0.501-1.88
		c-0.376-0.376-1.379-0.626-2.883-1.002s-2.507-0.501-2.757-0.752c-0.251-0.125-0.376-0.376-0.376-0.627c0-0.125,0-0.25,0.125-0.501
		c0.251-0.125,0.627-0.251,1.003-0.251s1.128,0,2.131,0.125h1.002c0.376,0,1.253,0,2.757-0.125h4.888l10.026-0.125l10.653-0.376
		h1.002h1.504c0.376,0,0.752,0.125,1.128,0.376c0.125,0.376,0.25,0.626,0.25,0.752v1.378l0.376,6.267c0,0.251,0,0.627-0.125,1.003
		c-0.376,0.125-0.752,0.25-1.002,0.25s-0.376-0.125-0.501-0.25c-0.125-0.251-0.25-0.752-0.376-1.504
		c-0.125-1.003-0.501-2.256-1.128-3.886c-0.25-0.752-0.752-1.253-1.504-1.504c-1.379-0.501-3.76-0.752-7.144-0.752
		c-1.504,0-3.008,0-4.387,0.125c-1.378,0.125-2.13,0.125-2.506,0.125h-2.757c-1.128,0-2.005,0.125-2.757,0.501
		c-0.501,0.251-0.752,0.752-0.752,1.504v0.501c0.125,1.253,0.125,2.507,0.125,4.011l-0.125,9.525c0,0.877,0.125,1.88,0.25,2.632
		l1.002,0.125l2.005-0.125h6.643c2.632,0,4.512-0.125,5.64-0.501c0.752-0.25,1.253-0.626,1.629-1.128
		c0.125-0.125,0.376-1.128,0.877-2.757l0.501-2.882c0.251-0.125,0.501-0.251,0.627-0.251s0.25,0,0.501,0.125
		c0.125,0.501,0.125,1.378,0.125,2.506l0.376,12.909c-0.376,0.126-0.752,0.251-0.877,0.251l-0.376-0.125
		c-0.376-2.382-1.002-4.136-1.754-5.515c-0.25-0.501-0.626-0.752-1.003-0.752c-0.626-0.125-3.384-0.25-8.397-0.25
		c-1.504,0-2.632,0-3.259,0c-1.378,0.125-2.256,0.125-2.507,0.125h-0.376c-0.752,0-1.253,0.125-1.504,0.25
		c-0.125,0.25-0.125,0.501-0.125,0.626v2.381c0,0.251,0,1.504,0,3.51l-0.125,11.655c0,0.376,0.125,0.752,0.25,1.254
		c0.501,0.376,1.379,0.627,2.632,0.752c1.253,0.125,2.506,0.376,3.634,0.877c0.627,0.251,1.003,0.627,1.003,1.003
		c0,0.125,0,0.376-0.125,0.501c-0.125,0.126-0.25,0.251-0.501,0.376c-1.88-0.376-4.512-0.626-8.021-0.626
		c-1.755,0-3.76,0.125-5.766,0.501c-1.378,0.251-3.008,0.376-4.763,0.376L166.442,415.489z"/>
	<path fill="#327264" d="M212.188,415.489v-0.877c0.501-0.251,1.378-0.502,2.507-0.627c1.128-0.125,2.005-0.376,2.506-0.627
		s0.877-0.501,1.128-0.752c0.251-1.003,0.376-2.883,0.376-5.64v-27.323l0.125-4.512c0-0.877-0.125-1.629-0.501-1.88
		c-0.376-0.376-1.378-0.626-2.882-1.002c-1.504-0.376-2.507-0.501-2.757-0.752c-0.251-0.125-0.376-0.376-0.376-0.627
		c0-0.125,0-0.25,0.125-0.501c0.251-0.125,0.627-0.251,1.003-0.251s1.128,0,2.13,0.125h1.003c0.376,0,1.253,0,2.757-0.125h4.888
		l10.027-0.125l10.653-0.376h1.002h1.504c0.376,0,0.752,0.125,1.128,0.376c0.125,0.376,0.25,0.626,0.25,0.752v1.378l0.376,6.267
		c0,0.251,0,0.627-0.125,1.003c-0.376,0.125-0.752,0.25-1.002,0.25c-0.251,0-0.376-0.125-0.501-0.25
		c-0.125-0.251-0.25-0.752-0.376-1.504c-0.125-1.003-0.501-2.256-1.128-3.886c-0.25-0.752-0.752-1.253-1.504-1.504
		c-1.379-0.501-3.76-0.752-7.144-0.752c-1.504,0-3.008,0-4.387,0.125c-1.378,0.125-2.131,0.125-2.507,0.125h-2.757
		c-1.128,0-2.005,0.125-2.757,0.501c-0.501,0.251-0.752,0.752-0.752,1.504v0.501c0.125,1.253,0.125,2.507,0.125,4.011l-0.125,9.525
		c0,0.877,0.125,1.88,0.251,2.632l1.002,0.125l2.005-0.125h6.643c2.632,0,4.512-0.125,5.64-0.501
		c0.752-0.25,1.253-0.626,1.629-1.128c0.125-0.125,0.376-1.128,0.877-2.757l0.501-2.882c0.251-0.125,0.501-0.251,0.627-0.251
		c0.125,0,0.25,0,0.501,0.125c0.125,0.501,0.125,1.378,0.125,2.506l0.376,12.909c-0.376,0.126-0.752,0.251-0.877,0.251l-0.376-0.125
		c-0.376-2.382-1.002-4.136-1.754-5.515c-0.251-0.501-0.627-0.752-1.003-0.752c-0.626-0.125-3.384-0.25-8.397-0.25
		c-1.504,0-2.632,0-3.259,0c-1.379,0.125-2.256,0.125-2.507,0.125h-0.376c-0.752,0-1.253,0.125-1.504,0.25
		c-0.125,0.25-0.125,0.501-0.125,0.626v2.381c0,0.251,0,1.504,0,3.51l-0.125,11.655c0,0.376,0.125,0.752,0.25,1.254
		c0.501,0.376,1.378,0.627,2.632,0.752s2.507,0.376,3.635,0.877c0.626,0.251,1.003,0.627,1.003,1.003c0,0.125,0,0.376-0.125,0.501
		c-0.125,0.126-0.251,0.251-0.501,0.376c-1.88-0.376-4.512-0.626-8.021-0.626c-1.754,0-3.76,0.125-5.765,0.501
		c-1.378,0.251-3.008,0.376-4.763,0.376L212.188,415.489z"/>
	<path fill="#327264" d="M258.562,413.86c0.501-0.251,1.003-0.376,1.629-0.376c3.635-0.251,5.64-0.627,6.141-1.254
		c0.501-0.627,0.752-3.635,0.752-9.023v-3.635v-3.886l-0.125-4.261l0.125-2.506v-2.758v-3.258l-0.125-1.379l0.125-1.88
		c0-0.376,0-0.877,0-1.504c0-1.504-0.125-3.008-0.25-4.637c-0.125-0.376-0.25-0.627-0.376-1.003
		c-0.877-0.501-2.256-0.752-4.136-0.877c-1.88-0.125-3.008-0.376-3.258-0.501c-0.125-0.125-0.251-0.501-0.376-1.128h3.008
		l9.274,0.25c2.381,0,5.64-0.125,9.525-0.25c0,0.376,0,0.752-0.125,1.002c-0.501,0.125-1.253,0.25-2.381,0.376
		c-2.256,0.251-3.635,0.501-4.136,0.752c-0.25,0.125-0.501,0.376-0.626,0.627c-0.251,0.376-0.376,1.253-0.376,2.381l-0.125,4.512
		l0.125,15.667v6.142c0,2.005-0.125,3.259-0.125,4.011c0,2.632,0.125,4.261,0.25,5.013c0.125,0.752,0.376,1.254,0.627,1.504
		c0.376,0.376,0.877,0.627,1.504,0.753c1.128,0.25,1.88,0.376,2.507,0.376c1.253,0,2.13,0.25,2.506,0.501
		c0.125,0.251,0.125,0.501,0.125,0.752v0.251c-2.131,0.125-3.76,0.125-4.763,0.125c-0.626,0-1.629,0-3.133-0.125l-4.888,0.125
		h-8.272h-0.626V413.86z"/>
	<path fill="#327264" d="M290.146,371.999v-1.629c3.635,0,6.267-0.125,8.021-0.251c0.627-0.125,1.128-0.125,1.379-0.125
		s0.501,0,1.002,0c1.003,0.877,1.88,1.754,2.757,2.757c0.125,0.25,0.376,0.501,0.627,0.752l7.394,8.146l1.003,1.253
		c1.504,1.754,2.883,3.258,4.136,4.512c1.254,1.253,3.635,3.885,7.145,7.771l8.397,9.274c0.877,0.877,1.88,2.005,3.133,3.384v-0.501
		c-0.125-3.259-0.25-5.014-0.25-5.139l0.125-2.131l-0.125-3.259v-1.504c0-1.002-0.126-3.885-0.251-8.898
		c0-0.627-0.125-2.005-0.251-3.885c-0.125-1.88-0.251-3.509-0.251-5.013c0-2.632-0.125-4.136-0.501-4.512
		c-0.251-0.25-1.253-0.626-3.008-1.002c-0.376,0-1.128-0.125-2.006-0.251c-1.002,0-1.629-0.125-1.88-0.125
		c-0.125-0.125-0.376-0.25-0.501-0.626c0-0.376,0.125-0.752,0.376-1.002c0.627-0.125,1.253-0.251,1.88-0.251
		s1.504,0.125,2.382,0.251c1.002,0.125,1.88,0.25,2.632,0.25c1.128,0,2.757-0.125,5.013-0.25c1.254-0.125,2.131-0.125,2.633-0.125
		h0.626l-0.125,1.128c-0.376,0.125-0.878,0.25-1.504,0.25c-0.627,0-1.254,0.125-1.88,0.251c-0.878,0.25-1.379,0.501-1.504,0.626
		c-0.502,0.627-0.878,1.253-0.878,1.88l0.376,11.155l0.251,5.139v1.504l0.251,7.019c0.125,4.763,0.25,9.023,0.25,12.533
		c0,0.752,0,2.507-0.125,5.013l-1.629,0.126c-0.878-0.878-3.635-3.886-8.523-8.898c-1.128-1.129-1.88-2.006-2.256-2.382
		l-3.008-3.509c-1.128-1.254-1.88-2.131-2.256-2.507s-0.627-0.627-0.752-0.752c-2.507-2.883-5.891-6.518-9.901-10.904
		c-1.128-1.128-2.757-3.008-4.888-5.515c-1.378-1.629-2.13-2.507-2.506-2.883s-0.877-0.752-1.379-1.253l-0.125,1.253
		c0,4.512,0.125,10.904,0.376,18.926l0.25,11.655c0,1.003,0.125,1.88,0.125,2.883l1.253,0.251c2.256,0.25,4.387,0.501,6.518,1.003
		c0.125,0.125,0.251,0.25,0.376,0.376v1.378c-0.376,0.126-0.627,0.126-0.877,0.126c-0.251,0-0.627,0-1.003-0.126
		c-2.256-0.125-5.139-0.25-8.523-0.25c-2.381,0-4.386,0-6.141,0.125h-0.501c-0.25,0-0.501,0-0.877-0.125v-1.003l0.877-0.376
		l1.629-0.251c1.504-0.25,2.507-0.501,3.259-0.752c0.501-0.125,0.752-0.376,1.128-0.752c0.25-1.629,0.376-4.011,0.376-7.144
		c0-1.504,0-4.137-0.125-8.021v-4.763l-0.125-10.027c0-4.386-0.251-7.019-0.501-7.896c-0.125-0.376-0.376-0.752-0.877-1.128
		c-0.877-0.626-2.005-1.002-3.509-1.253C291.524,372.25,290.521,372.124,290.146,371.999z"/>
	<path fill="#327264" d="M395.3,372.25l0.376,5.389c0.125,1.629,0.25,2.757,0.25,3.259l-1.128,0.25
		c-1.629-3.509-3.509-6.267-5.891-8.021c-2.381-1.755-5.139-2.632-8.522-2.632c-4.136,0-7.27,0.501-9.65,1.504
		c-3.384,1.378-6.142,3.885-8.522,7.395c-2.382,3.509-3.51,7.771-3.51,12.784c0,2.883,0.376,5.515,1.254,7.771
		c0.877,2.256,2.131,4.387,3.635,6.392c1.504,2.006,3.509,3.635,5.64,5.139c1.379,1.003,3.133,1.629,5.014,2.131
		c1.128,0.251,2.757,0.376,4.888,0.376c1.379,0,3.008-0.251,4.637-0.627c1.755-0.376,3.009-0.877,3.886-1.629
		c0.877-0.627,1.504-1.379,1.755-2.256c0.25-0.878,0.501-2.507,0.501-4.889c0-4.011-0.251-6.392-0.752-7.019
		c-0.501-0.626-2.256-1.128-5.139-1.379l-1.379-0.125h-1.002c-0.126,0-0.376,0-0.502-0.125l-0.501-0.877
		c0-0.125,0.125-0.25,0.251-0.501c1.253-0.125,3.885-0.25,7.896-0.25c0.878,0,2.382,0,4.512,0.125l3.635,0.125h3.259
		c0.627,0,1.379,0,2.256,0.125c0.126,0,0.251,0.125,0.376,0.125c0,0,0.126,0.125,0.126,0.25c0,0.25,0,0.626-0.126,1.002
		c-1.002,0.251-1.755,0.376-2.256,0.376h-2.256c-0.752,0-1.379,0.251-1.88,0.752c-0.251,0.251-0.376,1.128-0.376,2.632v4.638
		c0,3.134-0.125,5.139-0.376,6.016c-0.125,0.502-0.376,1.003-0.878,1.379c-0.501,0.376-1.378,0.878-2.757,1.504
		c-2.006,0.878-3.886,1.379-5.515,1.63c-3.134,0.501-6.016,0.752-8.898,0.752c-4.638,0-8.397-0.627-11.405-1.755
		s-5.515-2.883-7.646-4.888c-2.131-2.131-3.635-4.262-4.638-6.393c-1.378-3.133-2.13-6.392-2.13-9.65
		c0-4.136,1.128-8.146,3.258-12.032c2.131-3.885,5.641-7.144,10.528-9.525c3.384-1.755,8.021-2.632,13.787-2.632
		c4.01,0,7.269,0.376,9.9,1.003C391.665,370.62,393.796,371.372,395.3,372.25z"/>
	<path fill="#327264" d="M410.34,375.257l1.378-5.264c0.126-0.752,0.251-1.128,0.376-1.379c0.126-0.25,0.376-0.25,0.502-0.25
		c0.376,0,0.877,0.501,1.379,1.504c0.376,0.752,0.752,1.128,1.002,1.378c0.251,0.251,0.627,0.376,1.128,0.376h0.376l1.504,0.125
		l8.272,0.125h9.776h2.882l5.39-0.125c0.251,0,0.501,0,0.877,0.125c1.63,0.125,2.633,0.25,3.009,0.25s0.626-0.125,0.877-0.376
		c0.125-0.125,0.501-0.877,1.128-2.256c0.251-0.627,0.627-1.003,1.128-1.003c0.125,0,0.376,0,0.752,0.125
		c0.125,0.501,0.125,0.877,0.125,1.253v1.378v3.008c0,0.752,0,3.008-0.125,7.019c0,0.25,0,0.501-0.125,0.752
		c-0.251,0.125-0.502,0.25-0.627,0.25s-0.376-0.125-0.501-0.25c-0.126-0.125-0.376-0.752-0.502-1.629
		c-0.501-2.13-1.002-3.635-1.754-4.512c-0.502-0.627-1.129-1.003-2.006-1.253c-0.877-0.251-3.008-0.376-6.267-0.376
		c-2.632,0-4.638,0-5.891,0c0,0.877-0.125,1.754-0.125,2.506l0.25,21.808c0,0.877,0,2.507-0.125,4.888v4.638v2.632
		c0,0.877,0.125,1.379,0.376,1.755s1.003,0.752,2.256,1.003c2.131,0.501,3.635,0.877,4.262,1.002c0.501,0,0.752,0.126,1.128,0.251
		v1.003l-5.014-0.126c-2.757,0-4.763-0.125-6.142-0.125l-5.139,0.251l-3.76,0.25c-1.002,0-1.754,0-1.88-0.125l-0.501-0.251
		c0-0.501,0.125-0.877,0.376-1.002c0.125-0.126,0.627-0.251,1.253-0.376c1.003-0.126,2.131-0.377,3.51-0.752
		c1.379-0.377,2.256-0.753,2.632-1.129c0.251-0.25,0.376-0.501,0.501-1.002c0.251-1.003,0.376-3.008,0.376-6.017v-6.016
		l-0.125-13.035l-0.125-2.757v-9.4c-1.505,0-3.385,0-5.641,0c-3.384,0-5.389,0.25-6.141,0.626c-1.128,0.627-2.883,2.507-5.139,5.64
		c-0.752,1.128-1.379,1.755-2.006,1.755l-0.376-0.125c-0.125-0.125-0.125-0.251-0.125-0.376c0-0.251,0.125-1.128,0.501-2.507
		C409.964,377.137,410.214,375.884,410.34,375.257z"/>
	<path fill="#327264" d="M463.23,392.553c0-2.381,0.25-4.512,0.877-6.392c0.627-1.88,1.504-3.885,2.883-6.016
		c1.378-2.131,3.008-4.011,4.888-5.515s4.638-2.757,8.021-3.885c2.381-0.752,5.389-1.128,9.023-1.128
		c2.507,0,4.889,0.376,7.27,1.003c2.382,0.626,4.512,1.629,6.392,2.757c1.881,1.128,3.886,3.008,5.766,5.389
		c1.379,1.629,2.382,3.509,3.008,5.39c0.878,2.506,1.379,5.139,1.379,7.896c0,3.134-0.251,5.641-0.877,7.646
		c-0.627,2.006-1.63,4.011-3.008,6.016c-1.129,1.504-3.009,3.385-5.641,5.39c-1.755,1.379-4.011,2.507-6.643,3.259
		s-5.515,1.253-8.522,1.253c-3.134,0-5.891-0.376-8.272-1.128c-2.381-0.752-4.512-1.629-6.141-2.632
		c-1.63-1.003-3.259-2.632-5.014-4.637c-1.755-2.006-3.008-4.262-3.885-6.769C463.605,398.068,463.23,395.436,463.23,392.553z
		 M487.545,414.361c2.005,0,4.011-0.251,6.141-0.877c2.131-0.502,4.011-1.505,5.641-2.758c1.629-1.253,2.882-2.757,3.885-4.387
		c0.878-1.629,1.63-3.76,2.256-6.267c0.627-2.507,0.878-5.139,0.878-7.645c0-3.133-0.502-6.392-1.379-9.4
		c-0.752-2.382-1.88-4.512-3.51-6.392c-1.629-1.88-3.634-3.259-5.891-4.261c-2.256-1.003-4.763-1.504-7.395-1.504
		c-2.13,0-4.261,0.376-6.267,1.003c-2.005,0.752-3.76,1.629-5.013,2.632c-1.254,1.128-2.507,2.632-3.635,4.637
		s-2.006,4.262-2.507,6.643c-0.627,2.381-0.877,4.512-0.877,6.392c0,2.005,0.25,4.136,0.877,6.643
		c0.627,2.506,1.379,4.637,2.381,6.392c1.003,1.755,2.257,3.384,3.761,4.763s3.133,2.507,5.013,3.134
		C483.408,413.985,485.414,414.361,487.545,414.361z"/>
	<path fill="#327264" d="M519.379,371.999v-1.629c3.635,0,6.267-0.125,8.021-0.251c0.627-0.125,1.128-0.125,1.379-0.125
		c0.25,0,0.501,0,1.002,0c1.003,0.877,1.881,1.754,2.758,2.757c0.125,0.25,0.376,0.501,0.627,0.752l7.395,8.146l1.002,1.253
		c1.505,1.754,2.883,3.258,4.137,4.512c1.253,1.253,3.635,3.885,7.144,7.771l8.397,9.274c0.877,0.877,1.88,2.005,3.133,3.384v-0.501
		c-0.125-3.259-0.25-5.014-0.25-5.139l0.125-2.131l-0.125-3.259v-1.504c0-1.002-0.126-3.885-0.251-8.898
		c0-0.627-0.125-2.005-0.251-3.885c-0.125-1.88-0.25-3.509-0.25-5.013c0-2.632-0.126-4.136-0.502-4.512
		c-0.25-0.25-1.253-0.626-3.008-1.002c-0.376,0-1.128-0.125-2.005-0.251c-1.003,0-1.63-0.125-1.88-0.125
		c-0.126-0.125-0.376-0.25-0.502-0.626c0-0.376,0.126-0.752,0.376-1.002c0.627-0.125,1.254-0.251,1.88-0.251
		c0.627,0,1.504,0.125,2.382,0.251c1.003,0.125,1.88,0.25,2.632,0.25c1.128,0,2.758-0.125,5.014-0.25
		c1.253-0.125,2.13-0.125,2.632-0.125h0.626l-0.125,1.128c-0.376,0.125-0.877,0.25-1.504,0.25s-1.253,0.125-1.88,0.251
		c-0.878,0.25-1.379,0.501-1.504,0.626c-0.502,0.627-0.878,1.253-0.878,1.88l0.376,11.155l0.251,5.139v1.504l0.251,7.019
		c0.125,4.763,0.251,9.023,0.251,12.533c0,0.752,0,2.507-0.126,5.013l-1.629,0.126c-0.878-0.878-3.635-3.886-8.522-8.898
		c-1.128-1.129-1.881-2.006-2.256-2.382l-3.009-3.509c-1.128-1.254-1.88-2.131-2.256-2.507s-0.626-0.627-0.752-0.752
		c-2.507-2.883-5.891-6.518-9.901-10.904c-1.128-1.128-2.757-3.008-4.888-5.515c-1.379-1.629-2.131-2.507-2.507-2.883
		s-0.877-0.752-1.379-1.253l-0.125,1.253c0,4.512,0.125,10.904,0.376,18.926l0.251,11.655c0,1.003,0.125,1.88,0.125,2.883
		l1.254,0.251c2.256,0.25,4.386,0.501,6.517,1.003c0.126,0.125,0.251,0.25,0.376,0.376v1.378c-0.376,0.126-0.627,0.126-0.877,0.126
		c-0.251,0-0.627,0-1.003-0.126c-2.256-0.125-5.139-0.25-8.522-0.25c-2.381,0-4.387,0-6.142,0.125h-0.501
		c-0.251,0-0.501,0-0.877-0.125v-1.003l0.877-0.376l1.629-0.251c1.504-0.25,2.507-0.501,3.259-0.752
		c0.502-0.125,0.752-0.376,1.128-0.752c0.251-1.629,0.376-4.011,0.376-7.144c0-1.504,0-4.137-0.125-8.021v-4.763l-0.125-10.027
		c0-4.386-0.251-7.019-0.502-7.896c-0.125-0.376-0.376-0.752-0.877-1.128c-0.878-0.626-2.006-1.002-3.51-1.253
		C520.633,372.25,519.755,372.124,519.379,371.999z"/>
	<path fill="#327264" d="M213.567,445.318c0.376-0.125,0.752-0.125,0.752-0.125c0.752,0,2.131,0,3.886,0.125
		c1.002,0,1.629,0,2.005,0c0.501,0,1.629,0,3.258-0.125l6.016-0.376c1.629-0.126,3.384-0.251,5.515-0.251
		c3.635,0,6.643,0.501,8.773,1.504c2.13,1.003,3.885,2.632,5.013,4.888c1.128,2.257,1.754,4.387,1.754,6.643
		c0,3.635-1.253,6.894-3.885,9.525c-2.632,2.633-6.016,4.011-10.402,4.011c-1.253,0-2.256-0.125-3.008-0.376
		c-0.877-0.25-1.754-0.752-2.757-1.378c-0.501-0.251-0.752-0.627-0.752-1.003c0.125-0.126,0.251-0.251,0.376-0.376
		c0.376,0,0.627,0.125,1.003,0.25c0.752,0.251,1.754,0.376,3.008,0.376c1.88,0,3.635-0.501,5.264-1.378
		c1.629-0.878,2.882-2.256,3.76-3.886c0.877-1.629,1.253-3.509,1.253-5.39c0-1.88-0.501-3.634-1.378-5.264
		c-0.877-1.629-2.005-3.133-3.51-4.136c-0.877-0.627-2.13-1.128-3.76-1.504c-1.755-0.376-3.008-0.627-3.885-0.627
		c-2.883,0-4.637,0.251-5.139,0.627v0.501l0.125,4.011v0.752c0,0.627-0.125,1.63-0.125,2.883c0,4.763,0.125,7.771,0.25,8.898v2.006
		l0.501,16.042c0,0.251,0,0.627-0.125,1.254c0,0.626-0.125,1.128-0.125,1.629c0,1.128,0.125,2.006,0.25,2.507
		c0.501,0.125,2.256,0.501,4.888,1.128c1.253,0.251,2.005,0.501,2.131,0.501c0.125,0.126,0.376,0.251,0.501,0.502
		c-0.125,0.376-0.251,0.626-0.376,0.626c-0.125,0.126-0.501,0.126-0.877,0.126c-0.25,0-0.877,0-2.005-0.126
		c-2.005-0.25-3.635-0.376-4.763-0.376l-6.141,0.251l-3.635-0.125c-0.25,0-0.877,0-2.005,0.125v-0.877l4.512-0.878
		c0.752-0.25,1.253-0.376,1.378-0.626c0.25-0.376,0.376-1.003,0.376-1.881c0-0.25,0-0.626,0-1.378c0-0.502,0-1.128,0-2.006
		c0-2.757-0.125-8.647-0.376-17.672c-0.125-4.261-0.125-8.522-0.125-12.784v-0.626c0-1.63-0.25-2.758-0.752-3.134
		c-0.877-0.752-3.008-1.379-6.517-1.88c-0.125-0.251-0.125-0.501-0.125-0.627C213.442,445.819,213.442,445.569,213.567,445.318z"/>
	<path fill="#327264" d="M262.447,467.753c0-2.381,0.25-4.512,0.877-6.392c0.626-1.88,1.504-3.886,2.883-6.017
		c1.378-2.13,3.008-4.011,4.888-5.515s4.637-2.757,8.021-3.885c2.381-0.752,5.389-1.128,9.024-1.128
		c2.506,0,4.888,0.376,7.269,1.002c2.381,0.627,4.512,1.63,6.392,2.758s3.885,3.008,5.765,5.39c1.379,1.629,2.382,3.509,3.008,5.389
		c0.878,2.507,1.379,5.139,1.379,7.896c0,3.133-0.25,5.64-0.877,7.646c-0.627,2.005-1.63,4.01-3.008,6.016
		c-1.128,1.504-3.008,3.384-5.64,5.39c-1.755,1.378-4.011,2.506-6.643,3.258c-2.632,0.752-5.515,1.254-8.522,1.254
		c-3.133,0-5.891-0.376-8.272-1.128s-4.512-1.63-6.141-2.632c-1.629-1.003-3.259-2.633-5.014-4.638
		c-1.754-2.005-3.008-4.262-3.885-6.768C262.948,473.268,262.447,470.636,262.447,467.753z M286.887,489.561
		c2.005,0,4.011-0.25,6.141-0.877c2.131-0.501,4.011-1.504,5.64-2.758c1.629-1.253,2.883-2.757,3.885-4.386
		c0.877-1.63,1.629-3.761,2.256-6.267c0.501-2.507,0.877-5.139,0.877-7.646c0-3.134-0.501-6.393-1.378-9.4
		c-0.752-2.381-1.88-4.512-3.509-6.392s-3.635-3.259-5.891-4.262c-2.256-1.002-4.763-1.504-7.395-1.504
		c-2.13,0-4.261,0.376-6.267,1.003s-3.76,1.629-5.013,2.632c-1.253,1.128-2.507,2.632-3.635,4.638
		c-1.128,2.005-2.005,4.261-2.506,6.643c-0.627,2.381-0.877,4.512-0.877,6.392c0,2.006,0.25,4.136,0.877,6.643
		c0.626,2.507,1.378,4.638,2.381,6.393c1.002,1.754,2.256,3.384,3.76,4.762c1.504,1.379,3.133,2.507,5.013,3.134
		C282.751,489.185,284.756,489.561,286.887,489.561z"/>
	<path fill="#327264" d="M349.929,446.822c0.126,1.504,0.251,2.382,0.251,2.632l-0.125,3.134c0,1.379-0.126,2.131-0.126,2.507
		c-0.25,0.125-0.376,0.125-0.501,0.125l-0.376-0.125c-0.752-3.259-2.005-5.641-3.76-7.145s-4.011-2.256-6.518-2.256
		c-2.632,0-4.888,0.752-6.518,2.256c-1.754,1.504-2.506,3.259-2.506,5.265c0,1.504,0.626,2.882,1.754,4.136
		c1.254,1.253,4.262,3.133,9.149,5.64c3.76,1.88,6.393,3.51,8.021,4.763s2.883,2.632,3.635,4.262
		c0.877,1.629,1.253,3.384,1.253,5.389c0,2.507-0.626,4.889-2.005,7.019c-1.379,2.131-3.008,3.886-5.264,5.014
		c-2.257,1.128-5.139,1.629-8.773,1.629c-3.134,0-6.142-0.501-9.149-1.504c-1.755-0.626-2.758-1.128-3.134-1.504
		s-0.501-0.752-0.501-1.253c0-0.251,0-0.627,0.125-1.003c0.376-2.757,0.502-5.013,0.502-6.768c0-1.128,0.125-1.755,0.25-1.88
		c0.126-0.126,0.251-0.251,0.502-0.251c0.25,0,0.376,0.125,0.501,0.251c0.125,0.125,0.251,0.376,0.251,0.877
		c0.25,2.883,1.629,5.515,4.011,7.771c2.381,2.256,5.139,3.384,8.146,3.384c1.88,0,3.509-0.376,5.139-1.128
		c1.504-0.752,2.757-1.88,3.635-3.384c0.877-1.504,1.378-2.883,1.378-4.261c0-1.881-0.626-3.635-2.005-5.139
		c-1.379-1.63-4.011-3.385-8.021-5.515c-4.011-2.131-6.643-3.635-7.896-4.638c-2.006-1.629-3.385-3.259-4.387-5.014
		c-0.752-1.378-1.128-2.883-1.128-4.763c0-3.258,1.253-6.016,3.885-8.271s6.017-3.384,10.403-3.384c2.381,0,4.386,0.25,6.141,0.752
		C347.297,445.193,348.551,445.819,349.929,446.822z"/>
	<path fill="#327264" d="M364.343,450.457l1.378-5.264c0.126-0.752,0.251-1.128,0.376-1.379c0.126-0.251,0.376-0.251,0.502-0.251
		c0.376,0,0.877,0.502,1.378,1.504c0.377,0.752,0.753,1.128,1.003,1.379c0.251,0.251,0.627,0.376,1.128,0.376h0.376l1.504,0.126
		l8.272,0.125h9.775h2.883l5.39-0.125c0.251,0,0.501,0,0.877,0.125c1.63,0.125,2.632,0.251,3.009,0.251
		c0.375,0,0.626-0.126,0.877-0.376c0.125-0.126,0.501-0.878,1.128-2.257c0.251-0.626,0.627-1.002,1.128-1.002
		c0.125,0,0.376,0,0.752,0.125c0.125,0.501,0.125,0.877,0.125,1.253v1.379v3.008c0,0.752,0,3.009-0.125,7.019
		c0,0.251,0,0.502-0.125,0.752c-0.251,0.126-0.502,0.251-0.627,0.251s-0.376-0.125-0.501-0.251
		c-0.126-0.125-0.376-0.752-0.502-1.629c-0.501-2.131-1.002-3.635-1.754-4.512c-0.502-0.627-1.129-1.003-2.006-1.254
		c-0.877-0.25-3.008-0.376-6.267-0.376c-2.632,0-4.638,0-5.891,0c0,0.878-0.125,1.755-0.125,2.507l0.25,21.808
		c0,0.878,0,2.507-0.125,4.889v4.637v2.632c0,0.878,0.125,1.379,0.376,1.755s1.003,0.752,2.256,1.003
		c2.131,0.501,3.635,0.877,4.262,1.003c0.501,0,0.752,0.125,1.128,0.25v1.003l-5.014-0.125c-2.757,0-4.763-0.126-6.142-0.126
		l-5.139,0.251l-3.76,0.251c-1.002,0-1.755,0-1.88-0.126l-0.501-0.25c0-0.502,0.125-0.878,0.376-1.003
		c0.125-0.125,0.627-0.251,1.253-0.376c1.003-0.125,2.131-0.376,3.51-0.752c1.378-0.376,2.256-0.752,2.632-1.128
		c0.251-0.251,0.376-0.501,0.501-1.003c0.251-1.003,0.376-3.008,0.376-6.016v-6.017l-0.125-13.034l-0.125-2.757v-9.4
		c-1.505,0-3.385,0-5.641,0c-3.384,0-5.389,0.251-6.141,0.627c-1.129,0.626-2.883,2.507-5.139,5.64
		c-0.752,1.128-1.379,1.755-2.006,1.755l-0.376-0.126c-0.125-0.125-0.125-0.25-0.125-0.376c0-0.25,0.125-1.128,0.501-2.506
		C363.967,452.337,364.217,451.084,364.343,450.457z"/>
</g>
</svg>
