<?xml version="1.0" encoding="utf-8"?>
<!-- Generator: Adobe Illustrator 19.0.1, SVG Export Plug-In . SVG Version: 6.00 Build 0)  -->
<svg version="1.1" id="Layer_1" xmlns="http://www.w3.org/2000/svg" xmlns:xlink="http://www.w3.org/1999/xlink" x="0px" y="0px"
	 viewBox="-356 363.3 565 75.7" style="enable-background:new -356 363.3 565 75.7;" xml:space="preserve">
<style type="text/css">
	.st0{fill:#CC2027;}
</style>
<title>Verizon2016</title>
<polygon class="st0" points="-53.5,363.3 -70.4,399.4 -76.8,385.7 -83.6,385.7 -73.2,408.1 -67.6,408.1 -46.7,363.3 "/>
<path d="M-126,430.4h13.6v-24.9c0-5.7,3.3-9.7,8.2-9.7c4.7,0,7.2,3.3,7.2,8v26.6h13.6v-29.1c0-9.9-5.9-16.9-15.5-16.9
	c-6.1,0-10.4,2.6-13.6,7.4h-0.3v-6.1H-126V430.4z M-152.7,384.5c-14.2,0-23.7,10.2-23.7,23.6s9.5,23.7,23.7,23.7
	s23.7-10.3,23.7-23.7C-129,394.8-138.5,384.5-152.7,384.5z M-152.8,421.7c-6.5,0-9.9-5.4-9.9-13.6c0-8.2,3.4-13.6,9.9-13.6
	s10,5.3,10,13.6C-142.8,416.4-146.4,421.7-152.8,421.7z M-215.2,430.4h38.2v-10.7h-21.6v-0.3l20.7-23.2v-10.5h-37.3v10.7h20.9v0.3
	l-20.9,23.4L-215.2,430.4z M-232.7,430.4h13.7v-44.7h-13.7L-232.7,430.4z M-264.5,430.4h13.6v-20.5c0-9.3,5.6-13.4,14.1-12.3h0.3
	v-11.8c-0.9-0.3-1.8-0.4-2.8-0.3c-5.3,0-8.9,2.4-12,7.7h-0.3v-7.4h-13L-264.5,430.4z M-289.5,421.8c-6,0-9.7-3.9-10.4-10h32.2
	c0.1-9.6-2.4-17.3-7.8-22.1c-3.8-3.5-8.7-5.4-15-5.4c-13.4,0-22.8,10.2-22.8,23.6c0,13.4,8.9,23.7,23.6,23.7c4.9,0.1,9.7-1.3,13.7-4
	c3.7-2.4,6.4-6.2,7.5-10.6h-13.1C-282.8,420.1-285.5,421.8-289.5,421.8L-289.5,421.8z M-290.1,394.2c4.8,0,8.1,3.6,8.6,8.8h-18.3
	C-298.7,397.7-295.9,394.2-290.1,394.2L-290.1,394.2z M-340.5,430.4h14.3l15.5-44.7h-13.7l-8.7,28.7h-0.2l-8.8-28.7h-14
	L-340.5,430.4z M-232.7,369.8h13.7v12.1h-13.7L-232.7,369.8z"/>
<path d="M55.2,417.8c4.5-5,10.9-8.9,15.8-12.4c3.1-2.2,5-4.4,5-7.9c0-4.1-2.5-6.8-6.7-6.8c-2.5,0-4.4,0.7-5.7,2.2
	c-1.6,1.7-2.2,4.2-2.2,7.1H50.9c0-4.8,1-8.5,3.3-11.6c2.8-4.1,8-6.8,15.6-6.8c11.3,0,17.6,6.8,17.6,15.5c0,5.6-2.5,9.3-6.1,12.3
	c-5,4.6-12.4,7.6-16.2,12.4v0.2h22.2v9.3H50.1C50,426.3,51.8,421.4,55.2,417.8z"/>
<path d="M92.4,407c0-15.5,8.6-25.4,21.1-25.4c12.8,0,21.1,9.8,21.1,25.4s-8.4,25.4-21.2,25.4C101,432.4,92.4,422.5,92.4,407z
	 M123.2,407c0-10-2.8-16.7-9.7-16.7s-9.7,6.8-9.7,16.7s2.9,16.6,9.7,16.6S123.2,417,123.2,407z"/>
<path d="M150.3,399.5H139v-7.4c7.1-0.2,12.4-3.2,13.6-9.9h8.8v49h-11.1V399.5z"/>
<path d="M174.8,425.7c-3.8-4.5-5.5-10.8-5.5-18.5s1.6-14.6,5.7-19.3c3.5-4.1,8.3-6.3,15.2-6.3c10.1,0,16.1,5.5,17.5,12.6H197
	c-0.7-2.2-2.6-4.6-6.7-4.6c-6.5,0-10,4.9-10.5,14.5h0.1c2.6-3.9,7.1-6.2,11.9-6.1c9.4-0.1,17.1,7.4,17.2,16.8c0,0.1,0,0.2,0,0.3
	c0,10.2-8,17.3-18.9,17.3C183.3,432.4,178.2,429.9,174.8,425.7z M198.5,415.3c0.2-4.7-3.5-8.7-8.2-8.9c-0.2,0-0.3,0-0.5,0
	c-5.5,0-9.1,3.7-9.1,8.9s4,8.9,9.1,8.9c4.7,0.1,8.7-3.7,8.7-8.5C198.5,415.5,198.5,415.4,198.5,415.3z"/>
<path d="M-13,375.9h6.8V439H-13V375.9z"/>
</svg>
